<svg xmlns="http://www.w3.org/2000/svg" version="1.1" xmlns:xlink="http://www.w3.org/1999/xlink" xmlns:svgjs="http://svgjs.com/svgjs" width="512" height="512" x="0" y="0" viewBox="0 0 16.933333 16.933334" style="enable-background:new 0 0 512 512" xml:space="preserve" class=""><g><g xmlns="http://www.w3.org/2000/svg" id="layer1" transform="translate(0 -280.067)"><path id="rect3559" d="m1.3234221 281.14188c-.43513634 0-.79478183.35758-.79478183.79272v10.05468c0 .43513.35964549.79324.79478183.79324h5.2167366l-.396875 1.58801h-.8511117c-.288581 0-.5291667.24059-.5291667.52917v.52917c0 .28858.2405857.52916.5291667.52916h6.349484c.288581 0 .529683-.24058.529683-.52916v-.52917c0-.28858-.241102-.52917-.529683-.52917h-.852662l-.39584-1.58801h5.217252c.435131.001.797605-.35022.793234-.79324v-10.05468c0-.43514-.358097-.79272-.793234-.79272zm0 .52917h14.2869839c.151133 0 .263549.11242.263549.26355v8.7328h-14.8161481v-8.7328c0-.15113.1144826-.26355.2656152-.26355zm-.2656152 9.52552h14.8161481v.79271c0 .15114-.112416.26355-.263549.26355-4.76709-.002-9.5201633 0-14.2869839 0-.1511326 0-.2656152-.11242-.2656152-.26355zm6.0280549 1.58595h2.7621045l.3973937 1.58801h-3.5563732zm-1.7936898 2.11718c2.118368.006 4.2499651 0 6.349484 0v.52917h-6.349484z" font-variant-ligatures="normal" font-variant-position="normal" font-variant-caps="normal" font-variant-numeric="normal" font-variant-alternates="normal" font-feature-settings="normal" text-indent="0" text-align="start" text-decoration-line="none" text-decoration-style="solid" text-decoration-color="rgb(0,0,0)" text-transform="none" text-orientation="mixed" white-space="normal" shape-padding="0" isolation="auto" mix-blend-mode="normal" solid-color="rgb(0,0,0)" solid-opacity="1" vector-effect="none" paint-order="stroke fill markers" fill="#000000" data-original="#000000" class=""></path></g></g></svg>