<svg xmlns="http://www.w3.org/2000/svg" version="1.1" xmlns:xlink="http://www.w3.org/1999/xlink" xmlns:svgjs="http://svgjs.com/svgjs" width="512" height="512" x="0" y="0" viewBox="0 0 512 512" style="enable-background:new 0 0 512 512" xml:space="preserve" class=""><g>
<g xmlns="http://www.w3.org/2000/svg">
	<g>
		<path d="M477.52,195.501H497c8.284,0,15-6.716,15-15V120.5c0-8.284-6.716-15-15-15h-59.998c-8.284,0-15,6.716-15,15v60.001    c0,8.284,6.716,15,15,15h9.795C429.846,267.381,372.881,324.346,301,341.296v-9.794c0-8.284-6.716-15-15-15h-60    c-8.284,0-15,6.716-15,15v9.794c-71.88-16.951-128.843-73.915-145.794-145.795H75c8.284,0,15-6.716,15-15V120.5    c0-8.284-6.716-15-15-15H15c-8.284,0-15,6.716-15,15v60.001c0,8.284,6.716,15,15,15h19.482    c8.754,43.544,29.922,83.016,61.712,114.807c14.253,14.253,30.052,26.369,47.067,36.192H87.42    c-6.192-17.458-22.865-29.998-42.42-29.998c-24.813,0-45,20.186-45,44.998c0,24.814,20.187,45,45,45    c19.555,0,36.228-12.542,42.42-30H211v15c0,8.284,6.716,15,15,15h60c8.284,0,15-6.716,15-15v-15h123.582    c6.191,17.458,22.863,30,42.418,30c24.814,0,45-20.186,45-45c0-24.811-20.186-44.998-45-44.998    c-19.554,0-36.226,12.54-42.418,29.998h-55.843c17.016-9.822,32.814-21.94,47.068-36.192    C447.598,278.518,468.767,239.045,477.52,195.501z M452.002,135.5H482v30.001h-29.998V135.5z M60,165.501H30V135.5h30V165.501z     M45,376.5c-8.271,0-15-6.729-15-15s6.729-14.998,15-14.998s15,6.727,15,14.998S53.271,376.5,45,376.5z M271,376.5h-30v-29.998h30    V376.5z M467,346.502c8.272,0,15,6.727,15,14.998s-6.728,15-15,15c-8.27,0-14.998-6.729-14.998-15S458.73,346.502,467,346.502z" fill="#000000" data-original="#000000" class=""></path>
	</g>
</g>
<g xmlns="http://www.w3.org/2000/svg">
</g>
<g xmlns="http://www.w3.org/2000/svg">
</g>
<g xmlns="http://www.w3.org/2000/svg">
</g>
<g xmlns="http://www.w3.org/2000/svg">
</g>
<g xmlns="http://www.w3.org/2000/svg">
</g>
<g xmlns="http://www.w3.org/2000/svg">
</g>
<g xmlns="http://www.w3.org/2000/svg">
</g>
<g xmlns="http://www.w3.org/2000/svg">
</g>
<g xmlns="http://www.w3.org/2000/svg">
</g>
<g xmlns="http://www.w3.org/2000/svg">
</g>
<g xmlns="http://www.w3.org/2000/svg">
</g>
<g xmlns="http://www.w3.org/2000/svg">
</g>
<g xmlns="http://www.w3.org/2000/svg">
</g>
<g xmlns="http://www.w3.org/2000/svg">
</g>
<g xmlns="http://www.w3.org/2000/svg">
</g>
</g></svg>